<?xml version="1.0" encoding="UTF-8" standalone="no"?>
<!DOCTYPE svg PUBLIC "-//W3C//DTD SVG 1.1//EN"
 "http://www.w3.org/Graphics/SVG/1.1/DTD/svg11.dtd">
<!-- Generated by graphviz version 8.1.0 (20230707.0739)
 -->
<!-- Title: Dependencies Pages: 1 -->
<svg width="981pt" height="586pt"
 viewBox="0.00 0.00 981.25 585.59" xmlns="http://www.w3.org/2000/svg" xmlns:xlink="http://www.w3.org/1999/xlink">
<g id="graph0" class="graph" transform="scale(1 1) rotate(0) translate(4 581.59)">
<title>Dependencies</title>
<polygon fill="white" stroke="none" points="-4,4 -4,-581.59 977.25,-581.59 977.25,4 -4,4"/>
<!-- ErpTaskRunner.sln -->
<g id="node1" class="node">
<title>ErpTaskRunner.sln</title>
<ellipse fill="red" stroke="red" cx="255.56" cy="-374.6" rx="82.5" ry="82.5"/>
<text text-anchor="middle" x="255.56" y="-369.18" font-family="Times New Roman,serif" font-size="14.00">ErpTaskRunner.sln</text>
</g>
<!-- ErpTaskRunner.csproj -->
<g id="node2" class="node">
<title>ErpTaskRunner.csproj</title>
<polygon fill="none" stroke="black" points="570,-428.6 426.5,-428.6 426.5,-392.6 570,-392.6 570,-428.6"/>
<text text-anchor="middle" x="498.25" y="-405.18" font-family="Times New Roman,serif" font-size="14.00">ErpTaskRunner.csproj</text>
</g>
<!-- ErpTaskRunner.sln&#45;&gt;ErpTaskRunner.csproj -->
<g id="edge1" class="edge">
<title>ErpTaskRunner.sln&#45;&gt;ErpTaskRunner.csproj</title>
<path fill="none" stroke="black" d="M337.37,-386.69C362.59,-390.46 390.41,-394.62 415.67,-398.4"/>
<polygon fill="black" stroke="black" points="414.92,-401.98 425.33,-399.99 415.96,-395.05 414.92,-401.98"/>
</g>
<!-- RailServices.BLL.csproj -->
<g id="node3" class="node">
<title>RailServices.BLL.csproj</title>
<polygon fill="none" stroke="black" points="781.75,-405.6 628.5,-405.6 628.5,-369.6 781.75,-369.6 781.75,-405.6"/>
<text text-anchor="middle" x="705.12" y="-382.18" font-family="Times New Roman,serif" font-size="14.00">RailServices.BLL.csproj</text>
</g>
<!-- ErpTaskRunner.sln&#45;&gt;RailServices.BLL.csproj -->
<g id="edge3" class="edge">
<title>ErpTaskRunner.sln&#45;&gt;RailServices.BLL.csproj</title>
<path fill="none" stroke="black" d="M338.37,-376.59C406.39,-378.29 505.75,-380.89 592.5,-383.6 600.52,-383.85 608.86,-384.13 617.21,-384.41"/>
<polygon fill="black" stroke="black" points="617.05,-387.94 627.17,-384.79 617.3,-380.95 617.05,-387.94"/>
</g>
<!-- ErpTaskRunner.csproj&#45;&gt;RailServices.BLL.csproj -->
<g id="edge2" class="edge">
<title>ErpTaskRunner.csproj&#45;&gt;RailServices.BLL.csproj</title>
<path fill="none" stroke="black" d="M570.33,-402.62C585.54,-400.91 601.77,-399.09 617.5,-397.33"/>
<polygon fill="black" stroke="black" points="617.74,-400.71 627.28,-396.12 616.96,-393.75 617.74,-400.71"/>
</g>
<!-- RailServices.DAL.csproj -->
<g id="node4" class="node">
<title>RailServices.DAL.csproj</title>
<polygon fill="none" stroke="black" points="973.25,-405.6 817.75,-405.6 817.75,-369.6 973.25,-369.6 973.25,-405.6"/>
<text text-anchor="middle" x="895.5" y="-382.18" font-family="Times New Roman,serif" font-size="14.00">RailServices.DAL.csproj</text>
</g>
<!-- RailServices.BLL.csproj&#45;&gt;RailServices.DAL.csproj -->
<g id="edge4" class="edge">
<title>RailServices.BLL.csproj&#45;&gt;RailServices.DAL.csproj</title>
<path fill="none" stroke="black" d="M782.2,-374.33C790.29,-374.12 798.57,-374.06 806.79,-374.13"/>
<polygon fill="black" stroke="black" points="806.47,-377.64 816.52,-374.3 806.58,-370.64 806.47,-377.64"/>
</g>
<!-- RailServices.BLL.csproj&#45;&gt;RailServices.DAL.csproj -->
<g id="edge7" class="edge">
<title>RailServices.BLL.csproj&#45;&gt;RailServices.DAL.csproj</title>
<path fill="none" stroke="black" d="M782.2,-387.6C790.29,-387.6 798.57,-387.6 806.79,-387.6"/>
<polygon fill="black" stroke="black" points="806.52,-391.1 816.52,-387.6 806.52,-384.1 806.52,-391.1"/>
</g>
<!-- RailServices.BLL.csproj&#45;&gt;RailServices.DAL.csproj -->
<g id="edge20" class="edge">
<title>RailServices.BLL.csproj&#45;&gt;RailServices.DAL.csproj</title>
<path fill="none" stroke="black" d="M782.2,-400.88C790.29,-401.08 798.57,-401.15 806.79,-401.07"/>
<polygon fill="black" stroke="black" points="806.58,-404.56 816.52,-400.9 806.47,-397.56 806.58,-404.56"/>
</g>
<!-- OMNIS.sln -->
<g id="node5" class="node">
<title>OMNIS.sln</title>
<ellipse fill="red" stroke="red" cx="53.56" cy="-508.6" rx="53.56" ry="53.56"/>
<text text-anchor="middle" x="53.56" y="-503.18" font-family="Times New Roman,serif" font-size="14.00">OMNIS.sln</text>
</g>
<!-- OMNIS.sln&#45;&gt;RailServices.BLL.csproj -->
<g id="edge6" class="edge">
<title>OMNIS.sln&#45;&gt;RailServices.BLL.csproj</title>
<path fill="none" stroke="black" d="M107.07,-503.63C223.82,-492.25 501.75,-463.32 592.5,-437.6 615.57,-431.06 640,-420.56 660.11,-410.87"/>
<polygon fill="black" stroke="black" points="661.48,-413.61 668.91,-406.05 658.39,-407.33 661.48,-413.61"/>
</g>
<!-- OMNIS.sln&#45;&gt;RailServices.DAL.csproj -->
<g id="edge5" class="edge">
<title>OMNIS.sln&#45;&gt;RailServices.DAL.csproj</title>
<path fill="none" stroke="black" d="M56.45,-455.04C61.62,-343.59 80.16,-92.77 143.12,-40.6 335.33,118.65 776.11,-245.07 781.75,-249.6 821.79,-281.77 857.32,-330.26 877.35,-360.37"/>
<polygon fill="black" stroke="black" points="874.89,-362 883.29,-368.45 880.75,-358.17 874.89,-362"/>
</g>
<!-- ShopTrack2.Web.csproj -->
<g id="node6" class="node">
<title>ShopTrack2.Web.csproj</title>
<polygon fill="none" stroke="black" points="576,-558.6 420.5,-558.6 420.5,-522.6 576,-522.6 576,-558.6"/>
<text text-anchor="middle" x="498.25" y="-535.18" font-family="Times New Roman,serif" font-size="14.00">ShopTrack2.Web.csproj</text>
</g>
<!-- OMNIS.sln&#45;&gt;ShopTrack2.Web.csproj -->
<g id="edge8" class="edge">
<title>OMNIS.sln&#45;&gt;ShopTrack2.Web.csproj</title>
<path fill="none" stroke="black" d="M98.14,-539.05C111.9,-547.02 127.58,-554.52 143.12,-558.6 231.79,-581.9 337.14,-572 409.75,-559.64"/>
<polygon fill="black" stroke="black" points="409.98,-562.98 419.22,-557.81 408.77,-556.09 409.98,-562.98"/>
</g>
<!-- ShopTrack2.Tests.csproj -->
<g id="node7" class="node">
<title>ShopTrack2.Tests.csproj</title>
<polygon fill="none" stroke="black" points="335.18,-549.6 175.93,-549.6 175.93,-513.6 335.18,-513.6 335.18,-549.6"/>
<text text-anchor="middle" x="255.56" y="-526.18" font-family="Times New Roman,serif" font-size="14.00">ShopTrack2.Tests.csproj</text>
</g>
<!-- OMNIS.sln&#45;&gt;ShopTrack2.Tests.csproj -->
<g id="edge11" class="edge">
<title>OMNIS.sln&#45;&gt;ShopTrack2.Tests.csproj</title>
<path fill="none" stroke="black" d="M107.11,-514.64C124.78,-516.68 145.03,-519.01 164.75,-521.27"/>
<polygon fill="black" stroke="black" points="164.29,-524.86 174.63,-522.52 165.09,-517.9 164.29,-524.86"/>
</g>
<!-- ShopTrack2.Web.csproj&#45;&gt;RailServices.BLL.csproj -->
<g id="edge9" class="edge">
<title>ShopTrack2.Web.csproj&#45;&gt;RailServices.BLL.csproj</title>
<path fill="none" stroke="black" d="M568.27,-522.15C576.82,-518.38 585.14,-513.9 592.5,-508.6 613.85,-493.23 611.05,-481.3 628.5,-461.6 643.4,-444.78 661.33,-427.13 675.99,-413.3"/>
<polygon fill="black" stroke="black" points="677.85,-416.42 682.76,-407.03 673.07,-411.3 677.85,-416.42"/>
</g>
<!-- ShopTrack2.Web.csproj&#45;&gt;RailServices.DAL.csproj -->
<g id="edge10" class="edge">
<title>ShopTrack2.Web.csproj&#45;&gt;RailServices.DAL.csproj</title>
<path fill="none" stroke="black" d="M547.17,-522.11C561.73,-516.49 577.77,-510.3 592.5,-504.6 677.52,-471.72 775.97,-433.56 836.75,-410"/>
<polygon fill="black" stroke="black" points="837.85,-412.94 845.91,-406.06 835.32,-406.41 837.85,-412.94"/>
</g>
<!-- ShopTrack2.Tests.csproj&#45;&gt;RailServices.BLL.csproj -->
<g id="edge12" class="edge">
<title>ShopTrack2.Tests.csproj&#45;&gt;RailServices.BLL.csproj</title>
<path fill="none" stroke="black" d="M335.57,-521.5C419.9,-509.96 547.43,-490.16 592.5,-470.6 624.57,-456.68 656.07,-431.96 677.38,-413.1"/>
<polygon fill="black" stroke="black" points="679.24,-416.25 684.31,-406.95 674.54,-411.05 679.24,-416.25"/>
</g>
<!-- ShopTrack2.Tests.csproj&#45;&gt;RailServices.DAL.csproj -->
<g id="edge13" class="edge">
<title>ShopTrack2.Tests.csproj&#45;&gt;RailServices.DAL.csproj</title>
<path fill="none" stroke="black" d="M316.78,-550.07C384.59,-568.11 497.7,-589.85 592.5,-567.6 704.56,-541.3 815.41,-456.07 866.02,-413"/>
<polygon fill="black" stroke="black" points="867.89,-415.15 873.18,-405.97 863.32,-409.84 867.89,-415.15"/>
</g>
<!-- ShopTrack2.Tests.csproj&#45;&gt;ShopTrack2.Web.csproj -->
<g id="edge14" class="edge">
<title>ShopTrack2.Tests.csproj&#45;&gt;ShopTrack2.Web.csproj</title>
<path fill="none" stroke="black" d="M335.37,-534.55C359.03,-535.43 385.13,-536.41 409.34,-537.31"/>
<polygon fill="black" stroke="black" points="409.19,-540.85 419.31,-537.72 409.45,-533.85 409.19,-540.85"/>
</g>
<!-- UmlerEhmsTaskRunner.sln -->
<g id="node8" class="node">
<title>UmlerEhmsTaskRunner.sln</title>
<ellipse fill="red" stroke="red" cx="255.56" cy="-161.6" rx="112.44" ry="112.44"/>
<text text-anchor="middle" x="255.56" y="-156.18" font-family="Times New Roman,serif" font-size="14.00">UmlerEhmsTaskRunner.sln</text>
</g>
<!-- UmlerEhmsTaskRunner.sln&#45;&gt;RailServices.BLL.csproj -->
<g id="edge19" class="edge">
<title>UmlerEhmsTaskRunner.sln&#45;&gt;RailServices.BLL.csproj</title>
<path fill="none" stroke="black" d="M332.42,-243.85C359.57,-271.69 387.51,-298.15 404,-307.6 470.23,-345.56 554.98,-366 617.52,-376.69"/>
<polygon fill="black" stroke="black" points="616.71,-380.27 627.15,-378.45 617.85,-373.37 616.71,-380.27"/>
</g>
<!-- UmlerEhmsTaskRunner.sln&#45;&gt;RailServices.DAL.csproj -->
<g id="edge18" class="edge">
<title>UmlerEhmsTaskRunner.sln&#45;&gt;RailServices.DAL.csproj</title>
<path fill="none" stroke="black" d="M366.4,-182.5C475.33,-205.71 645.24,-248.68 781.75,-313.6 810.43,-327.24 840.36,-347.2 862.18,-362.95"/>
<polygon fill="black" stroke="black" points="859.87,-366.33 870,-369.41 864,-360.68 859.87,-366.33"/>
</g>
<!-- UmlerEhmsTaskRunner.csproj -->
<g id="node9" class="node">
<title>UmlerEhmsTaskRunner.csproj</title>
<polygon fill="none" stroke="black" points="592.5,-298.6 404,-298.6 404,-262.6 592.5,-262.6 592.5,-298.6"/>
<text text-anchor="middle" x="498.25" y="-275.18" font-family="Times New Roman,serif" font-size="14.00">UmlerEhmsTaskRunner.csproj</text>
</g>
<!-- UmlerEhmsTaskRunner.sln&#45;&gt;UmlerEhmsTaskRunner.csproj -->
<g id="edge15" class="edge">
<title>UmlerEhmsTaskRunner.sln&#45;&gt;UmlerEhmsTaskRunner.csproj</title>
<path fill="none" stroke="black" d="M356.89,-211.21C389.26,-227.21 423.61,-244.2 450.23,-257.36"/>
<polygon fill="black" stroke="black" points="448.52,-260.91 459.04,-262.2 451.62,-254.63 448.52,-260.91"/>
</g>
<!-- UmlerEhmsTaskRunner.csproj&#45;&gt;RailServices.BLL.csproj -->
<g id="edge16" class="edge">
<title>UmlerEhmsTaskRunner.csproj&#45;&gt;RailServices.BLL.csproj</title>
<path fill="none" stroke="black" d="M560.38,-299.01C571.28,-303.01 582.38,-307.58 592.5,-312.6 620.86,-326.69 650.5,-346.9 672.1,-362.79"/>
<polygon fill="black" stroke="black" points="669.73,-366.14 679.84,-369.31 673.92,-360.53 669.73,-366.14"/>
</g>
<!-- UmlerEhmsTaskRunner.csproj&#45;&gt;RailServices.DAL.csproj -->
<g id="edge17" class="edge">
<title>UmlerEhmsTaskRunner.csproj&#45;&gt;RailServices.DAL.csproj</title>
<path fill="none" stroke="black" d="M567.19,-299C636.3,-317.7 743.29,-346.67 815.98,-366.35"/>
<polygon fill="black" stroke="black" points="814.88,-369.94 825.45,-369.18 816.71,-363.19 814.88,-369.94"/>
</g>
</g>
</svg>
